<svg width="20" height="20" viewBox="0 0 20 20" fill="none" xmlns="http://www.w3.org/2000/svg">
<path d="M2.99697 3.496C2.99697 3.36339 3.04965 3.23622 3.14342 3.14245C3.23719 3.04868 3.36436 2.996 3.49697 2.996H3.93497C4.66197 2.996 5.07997 3.469 5.32197 3.941C5.48697 4.264 5.60597 4.658 5.70497 5H16C16.1545 5.00005 16.3069 5.0359 16.4452 5.10475C16.5836 5.17359 16.7041 5.27356 16.7973 5.3968C16.8905 5.52004 16.9538 5.6632 16.9824 5.81505C17.011 5.9669 17.004 6.12331 16.962 6.272L15.466 11.547C15.347 11.9655 15.0947 12.3338 14.7475 12.596C14.4003 12.8582 13.9771 13.0001 13.542 13H8.46297C8.02425 13.0002 7.59764 12.856 7.24889 12.5899C6.90013 12.3237 6.64858 11.9502 6.53297 11.527L5.89097 9.172C5.88729 9.16145 5.88396 9.15077 5.88097 9.14L4.84997 5.643L4.74997 5.306C4.64997 4.96 4.56197 4.654 4.42997 4.397C4.27097 4.087 4.12497 3.997 3.93397 3.997H3.49597C3.36336 3.997 3.23619 3.94432 3.14242 3.85056C3.04865 3.75679 2.99597 3.62961 2.99597 3.497L2.99697 3.496ZM8.49997 17C8.8978 17 9.27933 16.842 9.56063 16.5607C9.84194 16.2794 9.99997 15.8978 9.99997 15.5C9.99997 15.1022 9.84194 14.7206 9.56063 14.4393C9.27933 14.158 8.8978 14 8.49997 14C8.10215 14 7.72062 14.158 7.43931 14.4393C7.15801 14.7206 6.99997 15.1022 6.99997 15.5C6.99997 15.8978 7.15801 16.2794 7.43931 16.5607C7.72062 16.842 8.10215 17 8.49997 17ZM13.5 17C13.8978 17 14.2793 16.842 14.5606 16.5607C14.8419 16.2794 15 15.8978 15 15.5C15 15.1022 14.8419 14.7206 14.5606 14.4393C14.2793 14.158 13.8978 14 13.5 14C13.1021 14 12.7206 14.158 12.4393 14.4393C12.158 14.7206 12 15.1022 12 15.5C12 15.8978 12.158 16.2794 12.4393 16.5607C12.7206 16.842 13.1021 17 13.5 17Z" fill="black"/>
</svg>
