<svg width="30" height="50" viewBox="0 0 30 50" fill="none" xmlns="http://www.w3.org/2000/svg">
<g filter="url(#filter0_i_2_78)">
<path d="M16.735 44.0348C16.1424 45.8902 13.5172 45.8902 12.9246 44.0348L3.68595 15.1085C3.27385 13.8182 4.23662 12.5 5.59114 12.5H24.0684C25.423 12.5 26.3857 13.8182 25.9736 15.1085L16.735 44.0348Z" fill="#F9A66C"/>
</g>
<g filter="url(#filter1_d_2_78)">
<path d="M16.735 41.4489C16.1424 43.3042 13.5172 43.3042 12.9246 41.4489L5.52857 18.2918C5.11646 17.0015 6.07923 15.6833 7.43375 15.6833L22.2258 15.6833C23.5804 15.6833 24.5431 17.0015 24.131 18.2918L16.735 41.4489Z" fill="#FFC94B"/>
</g>
<g filter="url(#filter2_d_2_78)">
<circle cx="11" cy="19.7872" r="2.12766" fill="#F17A7E"/>
</g>
<g filter="url(#filter3_d_2_78)">
<circle cx="19.0851" cy="23.4043" r="2.12766" fill="#F17A7E"/>
</g>
<g filter="url(#filter4_d_2_78)">
<ellipse cx="12.4894" cy="29.3617" rx="2.12766" ry="2.12766" fill="#F17A7E"/>
</g>
<g filter="url(#filter5_d_2_78)">
<ellipse cx="15.4681" cy="36.5957" rx="2.12766" ry="2.12766" fill="#F17A7E"/>
</g>
<g filter="url(#filter6_d_2_78)">
<path d="M18.2189 28.6802C18.4238 28.8701 18.5894 29.0985 18.706 29.3524C18.8227 29.6063 18.8882 29.8806 18.8989 30.1598C18.9095 30.439 18.865 30.7176 18.768 30.9796C18.671 31.2416 18.5233 31.482 18.3334 31.6869C18.1435 31.8919 17.9151 32.0574 17.6612 32.1741C17.4073 32.2908 17.1329 32.3563 16.8537 32.3669C16.5745 32.3776 16.296 32.3331 16.0339 32.2361C15.7719 32.1391 15.5316 31.9914 15.3266 31.8015L15.8085 31.2815C15.9451 31.4081 16.1054 31.5066 16.2801 31.5713C16.4548 31.636 16.6406 31.6656 16.8267 31.6585C17.0129 31.6514 17.1959 31.6078 17.3652 31.53C17.5345 31.4522 17.6868 31.3418 17.8134 31.2051C17.94 31.0684 18.0385 30.9082 18.1032 30.7335C18.1679 30.5587 18.1976 30.373 18.1905 30.1868C18.1834 30.0006 18.1397 29.8177 18.0619 29.6484C17.9841 29.4791 17.8737 29.3268 17.737 29.2002L18.2189 28.6802Z" fill="#517441"/>
</g>
<g filter="url(#filter7_d_2_78)">
<path d="M14.3089 24.7929C14.1582 25.0282 13.9626 25.2314 13.7333 25.3911C13.504 25.5508 13.2455 25.6637 12.9725 25.7235C12.6996 25.7833 12.4176 25.7887 12.1425 25.7394C11.8675 25.6902 11.6048 25.5873 11.3696 25.4365C11.1343 25.2858 10.9311 25.0902 10.7714 24.8609C10.6117 24.6316 10.4988 24.3731 10.439 24.1002C10.3792 23.8272 10.3738 23.5452 10.4231 23.2702C10.4723 22.9951 10.5752 22.7325 10.726 22.4972L11.3229 22.8797C11.2223 23.0365 11.1537 23.2117 11.1209 23.3951C11.0881 23.5785 11.0917 23.7665 11.1315 23.9485C11.1714 24.1305 11.2467 24.3029 11.3532 24.4558C11.4596 24.6087 11.5952 24.7391 11.752 24.8396C11.9089 24.9402 12.084 25.0088 12.2674 25.0416C12.4508 25.0744 12.6389 25.0708 12.8209 25.031C13.0029 24.9911 13.1753 24.9158 13.3282 24.8093C13.4811 24.7029 13.6115 24.5673 13.712 24.4105L14.3089 24.7929Z" fill="#517441"/>
</g>
<g filter="url(#filter8_d_2_78)">
<path d="M18.0061 17.4036C18.2111 17.5935 18.3766 17.8219 18.4933 18.0758C18.6099 18.3297 18.6755 18.604 18.6861 18.8833C18.6967 19.1625 18.6523 19.441 18.5552 19.703C18.4582 19.9651 18.3105 20.2054 18.1206 20.4104C17.9307 20.6153 17.7023 20.7808 17.4484 20.8975C17.1945 21.0142 16.9202 21.0797 16.641 21.0904C16.3618 21.101 16.0832 21.0565 15.8212 20.9595C15.5591 20.8625 15.3188 20.7148 15.1138 20.5249L15.5957 20.0049C15.7323 20.1315 15.8926 20.23 16.0673 20.2947C16.242 20.3594 16.4278 20.389 16.614 20.382C16.8002 20.3749 16.9831 20.3312 17.1524 20.2534C17.3217 20.1756 17.474 20.0652 17.6006 19.9285C17.7273 19.7919 17.8257 19.6316 17.8904 19.4569C17.9551 19.2822 17.9848 19.0964 17.9777 18.9102C17.9706 18.7241 17.9269 18.5411 17.8491 18.3718C17.7713 18.2025 17.6609 18.0502 17.5243 17.9236L18.0061 17.4036Z" fill="#517441"/>
</g>
<defs>
<filter id="filter0_i_2_78" x="3.58971" y="12.5" width="22.4802" height="34.9263" filterUnits="userSpaceOnUse" color-interpolation-filters="sRGB">
<feFlood flood-opacity="0" result="BackgroundImageFix"/>
<feBlend mode="normal" in="SourceGraphic" in2="BackgroundImageFix" result="shape"/>
<feColorMatrix in="SourceAlpha" type="matrix" values="0 0 0 0 0 0 0 0 0 0 0 0 0 0 0 0 0 0 127 0" result="hardAlpha"/>
<feOffset dy="2"/>
<feGaussianBlur stdDeviation="2"/>
<feComposite in2="hardAlpha" operator="arithmetic" k2="-1" k3="1"/>
<feColorMatrix type="matrix" values="0 0 0 0 0 0 0 0 0 0 0 0 0 0 0 0 0 0 0.25 0"/>
<feBlend mode="normal" in2="shape" result="effect1_innerShadow_2_78"/>
</filter>
<filter id="filter1_d_2_78" x="0.432312" y="12.6833" width="28.795" height="37.1571" filterUnits="userSpaceOnUse" color-interpolation-filters="sRGB">
<feFlood flood-opacity="0" result="BackgroundImageFix"/>
<feColorMatrix in="SourceAlpha" type="matrix" values="0 0 0 0 0 0 0 0 0 0 0 0 0 0 0 0 0 0 127 0" result="hardAlpha"/>
<feOffset dy="2"/>
<feGaussianBlur stdDeviation="2.5"/>
<feComposite in2="hardAlpha" operator="out"/>
<feColorMatrix type="matrix" values="0 0 0 0 0 0 0 0 0 0 0 0 0 0 0 0 0 0 0.25 0"/>
<feBlend mode="normal" in2="BackgroundImageFix" result="effect1_dropShadow_2_78"/>
<feBlend mode="normal" in="SourceGraphic" in2="effect1_dropShadow_2_78" result="shape"/>
</filter>
<filter id="filter2_d_2_78" x="4.87234" y="15.6596" width="12.2553" height="12.2553" filterUnits="userSpaceOnUse" color-interpolation-filters="sRGB">
<feFlood flood-opacity="0" result="BackgroundImageFix"/>
<feColorMatrix in="SourceAlpha" type="matrix" values="0 0 0 0 0 0 0 0 0 0 0 0 0 0 0 0 0 0 127 0" result="hardAlpha"/>
<feOffset dy="2"/>
<feGaussianBlur stdDeviation="2"/>
<feComposite in2="hardAlpha" operator="out"/>
<feColorMatrix type="matrix" values="0 0 0 0 0 0 0 0 0 0 0 0 0 0 0 0 0 0 0.25 0"/>
<feBlend mode="normal" in2="BackgroundImageFix" result="effect1_dropShadow_2_78"/>
<feBlend mode="normal" in="SourceGraphic" in2="effect1_dropShadow_2_78" result="shape"/>
</filter>
<filter id="filter3_d_2_78" x="12.9574" y="19.2766" width="12.2553" height="12.2553" filterUnits="userSpaceOnUse" color-interpolation-filters="sRGB">
<feFlood flood-opacity="0" result="BackgroundImageFix"/>
<feColorMatrix in="SourceAlpha" type="matrix" values="0 0 0 0 0 0 0 0 0 0 0 0 0 0 0 0 0 0 127 0" result="hardAlpha"/>
<feOffset dy="2"/>
<feGaussianBlur stdDeviation="2"/>
<feComposite in2="hardAlpha" operator="out"/>
<feColorMatrix type="matrix" values="0 0 0 0 0 0 0 0 0 0 0 0 0 0 0 0 0 0 0.25 0"/>
<feBlend mode="normal" in2="BackgroundImageFix" result="effect1_dropShadow_2_78"/>
<feBlend mode="normal" in="SourceGraphic" in2="effect1_dropShadow_2_78" result="shape"/>
</filter>
<filter id="filter4_d_2_78" x="6.36169" y="25.234" width="12.2553" height="12.2553" filterUnits="userSpaceOnUse" color-interpolation-filters="sRGB">
<feFlood flood-opacity="0" result="BackgroundImageFix"/>
<feColorMatrix in="SourceAlpha" type="matrix" values="0 0 0 0 0 0 0 0 0 0 0 0 0 0 0 0 0 0 127 0" result="hardAlpha"/>
<feOffset dy="2"/>
<feGaussianBlur stdDeviation="2"/>
<feComposite in2="hardAlpha" operator="out"/>
<feColorMatrix type="matrix" values="0 0 0 0 0 0 0 0 0 0 0 0 0 0 0 0 0 0 0.25 0"/>
<feBlend mode="normal" in2="BackgroundImageFix" result="effect1_dropShadow_2_78"/>
<feBlend mode="normal" in="SourceGraphic" in2="effect1_dropShadow_2_78" result="shape"/>
</filter>
<filter id="filter5_d_2_78" x="9.34042" y="32.4681" width="12.2553" height="12.2553" filterUnits="userSpaceOnUse" color-interpolation-filters="sRGB">
<feFlood flood-opacity="0" result="BackgroundImageFix"/>
<feColorMatrix in="SourceAlpha" type="matrix" values="0 0 0 0 0 0 0 0 0 0 0 0 0 0 0 0 0 0 127 0" result="hardAlpha"/>
<feOffset dy="2"/>
<feGaussianBlur stdDeviation="2"/>
<feComposite in2="hardAlpha" operator="out"/>
<feColorMatrix type="matrix" values="0 0 0 0 0 0 0 0 0 0 0 0 0 0 0 0 0 0 0.25 0"/>
<feBlend mode="normal" in2="BackgroundImageFix" result="effect1_dropShadow_2_78"/>
<feBlend mode="normal" in="SourceGraphic" in2="effect1_dropShadow_2_78" result="shape"/>
</filter>
<filter id="filter6_d_2_78" x="11.3266" y="26.6802" width="11.5738" height="11.6883" filterUnits="userSpaceOnUse" color-interpolation-filters="sRGB">
<feFlood flood-opacity="0" result="BackgroundImageFix"/>
<feColorMatrix in="SourceAlpha" type="matrix" values="0 0 0 0 0 0 0 0 0 0 0 0 0 0 0 0 0 0 127 0" result="hardAlpha"/>
<feOffset dy="2"/>
<feGaussianBlur stdDeviation="2"/>
<feComposite in2="hardAlpha" operator="out"/>
<feColorMatrix type="matrix" values="0 0 0 0 0 0 0 0 0 0 0 0 0 0 0 0 0 0 0.25 0"/>
<feBlend mode="normal" in2="BackgroundImageFix" result="effect1_dropShadow_2_78"/>
<feBlend mode="normal" in="SourceGraphic" in2="effect1_dropShadow_2_78" result="shape"/>
</filter>
<filter id="filter7_d_2_78" x="6.38977" y="20.4972" width="11.9191" height="11.2755" filterUnits="userSpaceOnUse" color-interpolation-filters="sRGB">
<feFlood flood-opacity="0" result="BackgroundImageFix"/>
<feColorMatrix in="SourceAlpha" type="matrix" values="0 0 0 0 0 0 0 0 0 0 0 0 0 0 0 0 0 0 127 0" result="hardAlpha"/>
<feOffset dy="2"/>
<feGaussianBlur stdDeviation="2"/>
<feComposite in2="hardAlpha" operator="out"/>
<feColorMatrix type="matrix" values="0 0 0 0 0 0 0 0 0 0 0 0 0 0 0 0 0 0 0.25 0"/>
<feBlend mode="normal" in2="BackgroundImageFix" result="effect1_dropShadow_2_78"/>
<feBlend mode="normal" in="SourceGraphic" in2="effect1_dropShadow_2_78" result="shape"/>
</filter>
<filter id="filter8_d_2_78" x="11.1138" y="15.4036" width="11.5738" height="11.6883" filterUnits="userSpaceOnUse" color-interpolation-filters="sRGB">
<feFlood flood-opacity="0" result="BackgroundImageFix"/>
<feColorMatrix in="SourceAlpha" type="matrix" values="0 0 0 0 0 0 0 0 0 0 0 0 0 0 0 0 0 0 127 0" result="hardAlpha"/>
<feOffset dy="2"/>
<feGaussianBlur stdDeviation="2"/>
<feComposite in2="hardAlpha" operator="out"/>
<feColorMatrix type="matrix" values="0 0 0 0 0 0 0 0 0 0 0 0 0 0 0 0 0 0 0.25 0"/>
<feBlend mode="normal" in2="BackgroundImageFix" result="effect1_dropShadow_2_78"/>
<feBlend mode="normal" in="SourceGraphic" in2="effect1_dropShadow_2_78" result="shape"/>
</filter>
</defs>
</svg>
