<svg width="130" height="219" viewBox="0 0 130 219" fill="none" xmlns="http://www.w3.org/2000/svg">
<g filter="url(#filter0_i_2_77)">
<path d="M66.9052 213.035C66.3126 214.89 63.6874 214.89 63.0948 213.035L9.54146 45.3585C9.12935 44.0682 10.0921 42.75 11.4466 42.75L118.553 42.75C119.908 42.75 120.871 44.0682 120.459 45.3585L66.9052 213.035Z" fill="#F9A66C"/>
</g>
<g filter="url(#filter1_d_2_77)">
<path d="M66.9052 200.881C66.3126 202.736 63.6874 202.736 63.0948 200.881L18.2017 60.32C17.7896 59.0297 18.7524 57.7115 20.1069 57.7115H109.893C111.248 57.7115 112.21 59.0297 111.798 60.32L66.9052 200.881Z" fill="#FFC94B"/>
</g>
<g filter="url(#filter2_d_2_77)">
<circle cx="47" cy="77" r="10" fill="#F17A7E"/>
</g>
<g filter="url(#filter3_d_2_77)">
<circle cx="85" cy="94" r="10" fill="#F17A7E"/>
</g>
<g filter="url(#filter4_d_2_77)">
<circle cx="54" cy="122" r="10" fill="#F17A7E"/>
</g>
<g filter="url(#filter5_d_2_77)">
<circle cx="68" cy="156" r="10" fill="#F17A7E"/>
</g>
<g filter="url(#filter6_d_2_77)">
<path d="M80.9287 118.797C81.8919 119.689 82.67 120.763 83.2183 121.956C83.7667 123.149 84.0747 124.439 84.1246 125.751C84.1746 127.064 83.9657 128.373 83.5096 129.604C83.0536 130.836 82.3595 131.965 81.467 132.929C80.5744 133.892 79.5009 134.67 78.3076 135.218C77.1144 135.767 75.8248 136.075 74.5125 136.125C73.2002 136.175 71.891 135.966 70.6595 135.51C69.428 135.054 68.2983 134.36 67.3351 133.467L69.5997 131.023C70.242 131.618 70.9953 132.081 71.8164 132.385C72.6376 132.689 73.5107 132.828 74.3857 132.795C75.2607 132.762 76.1206 132.556 76.9163 132.191C77.712 131.825 78.4278 131.306 79.023 130.664C79.6182 130.022 80.081 129.268 80.3851 128.447C80.6892 127.626 80.8285 126.753 80.7952 125.878C80.7618 125.003 80.5565 124.143 80.1908 123.347C79.8252 122.552 79.3064 121.836 78.6641 121.241L80.9287 118.797Z" fill="#517441"/>
</g>
<g filter="url(#filter7_d_2_77)">
<path d="M62.5518 100.527C61.8434 101.632 60.9241 102.588 59.8464 103.338C58.7687 104.089 57.5538 104.62 56.271 104.9C54.9881 105.181 53.6625 105.207 52.3699 104.975C51.0772 104.744 49.8428 104.26 48.737 103.552C47.6313 102.843 46.676 101.924 45.9255 100.846C45.1751 99.7687 44.6443 98.5538 44.3634 97.2709C44.0824 95.9881 44.057 94.6625 44.2884 93.3699C44.5198 92.0772 45.0035 90.8427 45.712 89.737L48.5174 91.5345C48.045 92.2718 47.7224 93.095 47.5681 93.9569C47.4138 94.8189 47.4308 95.7028 47.6181 96.5582C47.8054 97.4136 48.1594 98.2238 48.6598 98.9424C49.1602 99.661 49.7972 100.274 50.5345 100.746C51.2719 101.219 52.095 101.541 52.957 101.696C53.8189 101.85 54.7028 101.833 55.5582 101.646C56.4136 101.458 57.2238 101.104 57.9424 100.604C58.661 100.104 59.274 99.4665 59.7464 98.7292L62.5518 100.527Z" fill="#517441"/>
</g>
<g filter="url(#filter8_d_2_77)">
<path d="M79.9287 65.7968C80.8919 66.6894 81.67 67.7629 82.2183 68.9562C82.7667 70.1494 83.0747 71.439 83.1246 72.7512C83.1746 74.0635 82.9657 75.3728 82.5096 76.6043C82.0536 77.8358 81.3595 78.9654 80.467 79.9287C79.5744 80.8919 78.5009 81.67 77.3076 82.2183C76.1144 82.7667 74.8248 83.0746 73.5125 83.1246C72.2002 83.1746 70.891 82.9656 69.6595 82.5096C68.428 82.0536 67.2983 81.3595 66.3351 80.467L68.5997 78.023C69.242 78.6182 69.9953 79.081 70.8164 79.3851C71.6376 79.6891 72.5107 79.8285 73.3857 79.7952C74.2607 79.7618 75.1206 79.5565 75.9163 79.1908C76.712 78.8252 77.4278 78.3064 78.023 77.6641C78.6182 77.0217 79.081 76.2685 79.3851 75.4473C79.6892 74.6261 79.8285 73.7531 79.7952 72.8781C79.7618 72.003 79.5565 71.1431 79.1908 70.3475C78.8252 69.5518 78.3064 68.8359 77.6641 68.2408L79.9287 65.7968Z" fill="#517441"/>
</g>
<defs>
<filter id="filter0_i_2_77" x="9.44521" y="42.75" width="111.11" height="173.676" filterUnits="userSpaceOnUse" color-interpolation-filters="sRGB">
<feFlood flood-opacity="0" result="BackgroundImageFix"/>
<feBlend mode="normal" in="SourceGraphic" in2="BackgroundImageFix" result="shape"/>
<feColorMatrix in="SourceAlpha" type="matrix" values="0 0 0 0 0 0 0 0 0 0 0 0 0 0 0 0 0 0 127 0" result="hardAlpha"/>
<feOffset dy="2"/>
<feGaussianBlur stdDeviation="2"/>
<feComposite in2="hardAlpha" operator="arithmetic" k2="-1" k3="1"/>
<feColorMatrix type="matrix" values="0 0 0 0 0 0 0 0 0 0 0 0 0 0 0 0 0 0 0.25 0"/>
<feBlend mode="normal" in2="shape" result="effect1_innerShadow_2_77"/>
</filter>
<filter id="filter1_d_2_77" x="13.1055" y="54.7115" width="103.789" height="154.561" filterUnits="userSpaceOnUse" color-interpolation-filters="sRGB">
<feFlood flood-opacity="0" result="BackgroundImageFix"/>
<feColorMatrix in="SourceAlpha" type="matrix" values="0 0 0 0 0 0 0 0 0 0 0 0 0 0 0 0 0 0 127 0" result="hardAlpha"/>
<feOffset dy="2"/>
<feGaussianBlur stdDeviation="2.5"/>
<feComposite in2="hardAlpha" operator="out"/>
<feColorMatrix type="matrix" values="0 0 0 0 0 0 0 0 0 0 0 0 0 0 0 0 0 0 0.25 0"/>
<feBlend mode="normal" in2="BackgroundImageFix" result="effect1_dropShadow_2_77"/>
<feBlend mode="normal" in="SourceGraphic" in2="effect1_dropShadow_2_77" result="shape"/>
</filter>
<filter id="filter2_d_2_77" x="33" y="65" width="28" height="28" filterUnits="userSpaceOnUse" color-interpolation-filters="sRGB">
<feFlood flood-opacity="0" result="BackgroundImageFix"/>
<feColorMatrix in="SourceAlpha" type="matrix" values="0 0 0 0 0 0 0 0 0 0 0 0 0 0 0 0 0 0 127 0" result="hardAlpha"/>
<feOffset dy="2"/>
<feGaussianBlur stdDeviation="2"/>
<feComposite in2="hardAlpha" operator="out"/>
<feColorMatrix type="matrix" values="0 0 0 0 0 0 0 0 0 0 0 0 0 0 0 0 0 0 0.25 0"/>
<feBlend mode="normal" in2="BackgroundImageFix" result="effect1_dropShadow_2_77"/>
<feBlend mode="normal" in="SourceGraphic" in2="effect1_dropShadow_2_77" result="shape"/>
</filter>
<filter id="filter3_d_2_77" x="71" y="82" width="28" height="28" filterUnits="userSpaceOnUse" color-interpolation-filters="sRGB">
<feFlood flood-opacity="0" result="BackgroundImageFix"/>
<feColorMatrix in="SourceAlpha" type="matrix" values="0 0 0 0 0 0 0 0 0 0 0 0 0 0 0 0 0 0 127 0" result="hardAlpha"/>
<feOffset dy="2"/>
<feGaussianBlur stdDeviation="2"/>
<feComposite in2="hardAlpha" operator="out"/>
<feColorMatrix type="matrix" values="0 0 0 0 0 0 0 0 0 0 0 0 0 0 0 0 0 0 0.25 0"/>
<feBlend mode="normal" in2="BackgroundImageFix" result="effect1_dropShadow_2_77"/>
<feBlend mode="normal" in="SourceGraphic" in2="effect1_dropShadow_2_77" result="shape"/>
</filter>
<filter id="filter4_d_2_77" x="40" y="110" width="28" height="28" filterUnits="userSpaceOnUse" color-interpolation-filters="sRGB">
<feFlood flood-opacity="0" result="BackgroundImageFix"/>
<feColorMatrix in="SourceAlpha" type="matrix" values="0 0 0 0 0 0 0 0 0 0 0 0 0 0 0 0 0 0 127 0" result="hardAlpha"/>
<feOffset dy="2"/>
<feGaussianBlur stdDeviation="2"/>
<feComposite in2="hardAlpha" operator="out"/>
<feColorMatrix type="matrix" values="0 0 0 0 0 0 0 0 0 0 0 0 0 0 0 0 0 0 0.25 0"/>
<feBlend mode="normal" in2="BackgroundImageFix" result="effect1_dropShadow_2_77"/>
<feBlend mode="normal" in="SourceGraphic" in2="effect1_dropShadow_2_77" result="shape"/>
</filter>
<filter id="filter5_d_2_77" x="54" y="144" width="28" height="28" filterUnits="userSpaceOnUse" color-interpolation-filters="sRGB">
<feFlood flood-opacity="0" result="BackgroundImageFix"/>
<feColorMatrix in="SourceAlpha" type="matrix" values="0 0 0 0 0 0 0 0 0 0 0 0 0 0 0 0 0 0 127 0" result="hardAlpha"/>
<feOffset dy="2"/>
<feGaussianBlur stdDeviation="2"/>
<feComposite in2="hardAlpha" operator="out"/>
<feColorMatrix type="matrix" values="0 0 0 0 0 0 0 0 0 0 0 0 0 0 0 0 0 0 0.25 0"/>
<feBlend mode="normal" in2="BackgroundImageFix" result="effect1_dropShadow_2_77"/>
<feBlend mode="normal" in="SourceGraphic" in2="effect1_dropShadow_2_77" result="shape"/>
</filter>
<filter id="filter6_d_2_77" x="63.3351" y="116.797" width="24.7968" height="25.3351" filterUnits="userSpaceOnUse" color-interpolation-filters="sRGB">
<feFlood flood-opacity="0" result="BackgroundImageFix"/>
<feColorMatrix in="SourceAlpha" type="matrix" values="0 0 0 0 0 0 0 0 0 0 0 0 0 0 0 0 0 0 127 0" result="hardAlpha"/>
<feOffset dy="2"/>
<feGaussianBlur stdDeviation="2"/>
<feComposite in2="hardAlpha" operator="out"/>
<feColorMatrix type="matrix" values="0 0 0 0 0 0 0 0 0 0 0 0 0 0 0 0 0 0 0.25 0"/>
<feBlend mode="normal" in2="BackgroundImageFix" result="effect1_dropShadow_2_77"/>
<feBlend mode="normal" in="SourceGraphic" in2="effect1_dropShadow_2_77" result="shape"/>
</filter>
<filter id="filter7_d_2_77" x="40.1319" y="87.737" width="26.4199" height="23.3949" filterUnits="userSpaceOnUse" color-interpolation-filters="sRGB">
<feFlood flood-opacity="0" result="BackgroundImageFix"/>
<feColorMatrix in="SourceAlpha" type="matrix" values="0 0 0 0 0 0 0 0 0 0 0 0 0 0 0 0 0 0 127 0" result="hardAlpha"/>
<feOffset dy="2"/>
<feGaussianBlur stdDeviation="2"/>
<feComposite in2="hardAlpha" operator="out"/>
<feColorMatrix type="matrix" values="0 0 0 0 0 0 0 0 0 0 0 0 0 0 0 0 0 0 0.25 0"/>
<feBlend mode="normal" in2="BackgroundImageFix" result="effect1_dropShadow_2_77"/>
<feBlend mode="normal" in="SourceGraphic" in2="effect1_dropShadow_2_77" result="shape"/>
</filter>
<filter id="filter8_d_2_77" x="62.3351" y="63.7968" width="24.7968" height="25.3351" filterUnits="userSpaceOnUse" color-interpolation-filters="sRGB">
<feFlood flood-opacity="0" result="BackgroundImageFix"/>
<feColorMatrix in="SourceAlpha" type="matrix" values="0 0 0 0 0 0 0 0 0 0 0 0 0 0 0 0 0 0 127 0" result="hardAlpha"/>
<feOffset dy="2"/>
<feGaussianBlur stdDeviation="2"/>
<feComposite in2="hardAlpha" operator="out"/>
<feColorMatrix type="matrix" values="0 0 0 0 0 0 0 0 0 0 0 0 0 0 0 0 0 0 0.25 0"/>
<feBlend mode="normal" in2="BackgroundImageFix" result="effect1_dropShadow_2_77"/>
<feBlend mode="normal" in="SourceGraphic" in2="effect1_dropShadow_2_77" result="shape"/>
</filter>
</defs>
</svg>
