<svg width="130" height="235" viewBox="0 0 130 235" fill="none" xmlns="http://www.w3.org/2000/svg">
<g filter="url(#filter0_i_22_1173)">
<path d="M69.763 220.087C68.2815 224.725 61.7185 224.725 60.237 220.087L10.7911 65.2712C9.76085 62.0454 12.1678 58.75 15.5541 58.75H114.446C117.832 58.75 120.239 62.0454 119.209 65.2712L69.763 220.087Z" fill="#F9A66C"/>
</g>
<g filter="url(#filter1_d_22_1173)">
<path d="M69.7684 219.881C68.2982 224.543 61.7018 224.543 60.2316 219.881L15.9559 79.504C14.9396 76.2817 17.3456 73 20.7243 73H109.276C112.654 73 115.06 76.2817 114.044 79.504L69.7684 219.881Z" fill="#F17A7E"/>
</g>
<g filter="url(#filter2_d_22_1173)">
<path d="M69.7691 219.856C68.3003 224.52 61.6997 224.52 60.2309 219.856L17.6841 84.7519C16.6695 81.5301 19.0754 78.25 22.4532 78.25H107.547C110.925 78.25 113.331 81.5301 112.316 84.7519L69.7691 219.856Z" fill="#FFC94B"/>
</g>
<g filter="url(#filter3_d_22_1173)">
<path d="M47 103C52.5228 103 57 98.5228 57 93C57 87.4772 52.5228 83 47 83C41.4772 83 37 87.4772 37 93C37 98.5228 41.4772 103 47 103Z" fill="#F17A7E"/>
<path d="M47 102.5C52.2467 102.5 56.5 98.2467 56.5 93C56.5 87.7533 52.2467 83.5 47 83.5C41.7533 83.5 37.5 87.7533 37.5 93C37.5 98.2467 41.7533 102.5 47 102.5Z" stroke="#CA4D51"/>
</g>
<path d="M44 89C44.5523 89 45 88.5523 45 88C45 87.4477 44.5523 87 44 87C43.4477 87 43 87.4477 43 88C43 88.5523 43.4477 89 44 89Z" fill="#CA4D51"/>
<path d="M44 99C44.5523 99 45 98.5523 45 98C45 97.4477 44.5523 97 44 97C43.4477 97 43 97.4477 43 98C43 98.5523 43.4477 99 44 99Z" fill="#CA4D51"/>
<path d="M49 95C49.5523 95 50 94.5523 50 94C50 93.4477 49.5523 93 49 93C48.4477 93 48 93.4477 48 94C48 94.5523 48.4477 95 49 95Z" fill="#CA4D51"/>
<path d="M53 96C53.5523 96 54 95.5523 54 95C54 94.4477 53.5523 94 53 94C52.4477 94 52 94.4477 52 95C52 95.5523 52.4477 96 53 96Z" fill="#CA4D51"/>
<path d="M49 100C49.5523 100 50 99.5523 50 99C50 98.4477 49.5523 98 49 98C48.4477 98 48 98.4477 48 99C48 99.5523 48.4477 100 49 100Z" fill="#CA4D51"/>
<path d="M41 93C41.5523 93 42 92.5523 42 92C42 91.4477 41.5523 91 41 91C40.4477 91 40 91.4477 40 92C40 92.5523 40.4477 93 41 93Z" fill="#CA4D51"/>
<path d="M44 95C44.5523 95 45 94.5523 45 94C45 93.4477 44.5523 93 44 93C43.4477 93 43 93.4477 43 94C43 94.5523 43.4477 95 44 95Z" fill="#CA4D51"/>
<path d="M52 91C52.5523 91 53 90.5523 53 90C53 89.4477 52.5523 89 52 89C51.4477 89 51 89.4477 51 90C51 90.5523 51.4477 91 52 91Z" fill="#CA4D51"/>
<path d="M47 92C47.5523 92 48 91.5523 48 91C48 90.4477 47.5523 90 47 90C46.4477 90 46 90.4477 46 91C46 91.5523 46.4477 92 47 92Z" fill="#CA4D51"/>
<path d="M49 88C49.5523 88 50 87.5523 50 87C50 86.4477 49.5523 86 49 86C48.4477 86 48 86.4477 48 87C48 87.5523 48.4477 88 49 88Z" fill="#CA4D51"/>
<g filter="url(#filter4_d_22_1173)">
<path d="M85 120C90.5228 120 95 115.523 95 110C95 104.477 90.5228 100 85 100C79.4772 100 75 104.477 75 110C75 115.523 79.4772 120 85 120Z" fill="#F17A7E"/>
<path d="M85 119.5C90.2467 119.5 94.5 115.247 94.5 110C94.5 104.753 90.2467 100.5 85 100.5C79.7533 100.5 75.5 104.753 75.5 110C75.5 115.247 79.7533 119.5 85 119.5Z" stroke="#CA4D51"/>
</g>
<path d="M82 106C82.5523 106 83 105.552 83 105C83 104.448 82.5523 104 82 104C81.4477 104 81 104.448 81 105C81 105.552 81.4477 106 82 106Z" fill="#CA4D51"/>
<path d="M82 116C82.5523 116 83 115.552 83 115C83 114.448 82.5523 114 82 114C81.4477 114 81 114.448 81 115C81 115.552 81.4477 116 82 116Z" fill="#CA4D51"/>
<path d="M87 112C87.5523 112 88 111.552 88 111C88 110.448 87.5523 110 87 110C86.4477 110 86 110.448 86 111C86 111.552 86.4477 112 87 112Z" fill="#CA4D51"/>
<path d="M91 113C91.5523 113 92 112.552 92 112C92 111.448 91.5523 111 91 111C90.4477 111 90 111.448 90 112C90 112.552 90.4477 113 91 113Z" fill="#CA4D51"/>
<path d="M87 117C87.5523 117 88 116.552 88 116C88 115.448 87.5523 115 87 115C86.4477 115 86 115.448 86 116C86 116.552 86.4477 117 87 117Z" fill="#CA4D51"/>
<path d="M79 110C79.5523 110 80 109.552 80 109C80 108.448 79.5523 108 79 108C78.4477 108 78 108.448 78 109C78 109.552 78.4477 110 79 110Z" fill="#CA4D51"/>
<path d="M82 112C82.5523 112 83 111.552 83 111C83 110.448 82.5523 110 82 110C81.4477 110 81 110.448 81 111C81 111.552 81.4477 112 82 112Z" fill="#CA4D51"/>
<path d="M90 108C90.5523 108 91 107.552 91 107C91 106.448 90.5523 106 90 106C89.4477 106 89 106.448 89 107C89 107.552 89.4477 108 90 108Z" fill="#CA4D51"/>
<path d="M85 109C85.5523 109 86 108.552 86 108C86 107.448 85.5523 107 85 107C84.4477 107 84 107.448 84 108C84 108.552 84.4477 109 85 109Z" fill="#CA4D51"/>
<path d="M87 105C87.5523 105 88 104.552 88 104C88 103.448 87.5523 103 87 103C86.4477 103 86 103.448 86 104C86 104.552 86.4477 105 87 105Z" fill="#CA4D51"/>
<g filter="url(#filter5_d_22_1173)">
<path d="M54 148C59.5228 148 64 143.523 64 138C64 132.477 59.5228 128 54 128C48.4772 128 44 132.477 44 138C44 143.523 48.4772 148 54 148Z" fill="#F17A7E"/>
<path d="M54 147.5C59.2467 147.5 63.5 143.247 63.5 138C63.5 132.753 59.2467 128.5 54 128.5C48.7533 128.5 44.5 132.753 44.5 138C44.5 143.247 48.7533 147.5 54 147.5Z" stroke="#CA4D51"/>
</g>
<path d="M51 134C51.5523 134 52 133.552 52 133C52 132.448 51.5523 132 51 132C50.4477 132 50 132.448 50 133C50 133.552 50.4477 134 51 134Z" fill="#CA4D51"/>
<path d="M51 144C51.5523 144 52 143.552 52 143C52 142.448 51.5523 142 51 142C50.4477 142 50 142.448 50 143C50 143.552 50.4477 144 51 144Z" fill="#CA4D51"/>
<path d="M56 140C56.5523 140 57 139.552 57 139C57 138.448 56.5523 138 56 138C55.4477 138 55 138.448 55 139C55 139.552 55.4477 140 56 140Z" fill="#CA4D51"/>
<path d="M60 141C60.5523 141 61 140.552 61 140C61 139.448 60.5523 139 60 139C59.4477 139 59 139.448 59 140C59 140.552 59.4477 141 60 141Z" fill="#CA4D51"/>
<path d="M56 145C56.5523 145 57 144.552 57 144C57 143.448 56.5523 143 56 143C55.4477 143 55 143.448 55 144C55 144.552 55.4477 145 56 145Z" fill="#CA4D51"/>
<path d="M48 138C48.5523 138 49 137.552 49 137C49 136.448 48.5523 136 48 136C47.4477 136 47 136.448 47 137C47 137.552 47.4477 138 48 138Z" fill="#CA4D51"/>
<path d="M51 140C51.5523 140 52 139.552 52 139C52 138.448 51.5523 138 51 138C50.4477 138 50 138.448 50 139C50 139.552 50.4477 140 51 140Z" fill="#CA4D51"/>
<path d="M59 136C59.5523 136 60 135.552 60 135C60 134.448 59.5523 134 59 134C58.4477 134 58 134.448 58 135C58 135.552 58.4477 136 59 136Z" fill="#CA4D51"/>
<path d="M54 137C54.5523 137 55 136.552 55 136C55 135.448 54.5523 135 54 135C53.4477 135 53 135.448 53 136C53 136.552 53.4477 137 54 137Z" fill="#CA4D51"/>
<path d="M56 133C56.5523 133 57 132.552 57 132C57 131.448 56.5523 131 56 131C55.4477 131 55 131.448 55 132C55 132.552 55.4477 133 56 133Z" fill="#CA4D51"/>
<g filter="url(#filter6_d_22_1173)">
<path d="M68 182C73.5228 182 78 177.523 78 172C78 166.477 73.5228 162 68 162C62.4772 162 58 166.477 58 172C58 177.523 62.4772 182 68 182Z" fill="#F17A7E"/>
<path d="M68 181.5C73.2467 181.5 77.5 177.247 77.5 172C77.5 166.753 73.2467 162.5 68 162.5C62.7533 162.5 58.5 166.753 58.5 172C58.5 177.247 62.7533 181.5 68 181.5Z" stroke="#CA4D51"/>
</g>
<path d="M65 168C65.5523 168 66 167.552 66 167C66 166.448 65.5523 166 65 166C64.4477 166 64 166.448 64 167C64 167.552 64.4477 168 65 168Z" fill="#CA4D51"/>
<path d="M65 178C65.5523 178 66 177.552 66 177C66 176.448 65.5523 176 65 176C64.4477 176 64 176.448 64 177C64 177.552 64.4477 178 65 178Z" fill="#CA4D51"/>
<path d="M70 174C70.5523 174 71 173.552 71 173C71 172.448 70.5523 172 70 172C69.4477 172 69 172.448 69 173C69 173.552 69.4477 174 70 174Z" fill="#CA4D51"/>
<path d="M74 175C74.5523 175 75 174.552 75 174C75 173.448 74.5523 173 74 173C73.4477 173 73 173.448 73 174C73 174.552 73.4477 175 74 175Z" fill="#CA4D51"/>
<path d="M70 179C70.5523 179 71 178.552 71 178C71 177.448 70.5523 177 70 177C69.4477 177 69 177.448 69 178C69 178.552 69.4477 179 70 179Z" fill="#CA4D51"/>
<path d="M62 172C62.5523 172 63 171.552 63 171C63 170.448 62.5523 170 62 170C61.4477 170 61 170.448 61 171C61 171.552 61.4477 172 62 172Z" fill="#CA4D51"/>
<path d="M65 174C65.5523 174 66 173.552 66 173C66 172.448 65.5523 172 65 172C64.4477 172 64 172.448 64 173C64 173.552 64.4477 174 65 174Z" fill="#CA4D51"/>
<path d="M73 170C73.5523 170 74 169.552 74 169C74 168.448 73.5523 168 73 168C72.4477 168 72 168.448 72 169C72 169.552 72.4477 170 73 170Z" fill="#CA4D51"/>
<path d="M68 171C68.5523 171 69 170.552 69 170C69 169.448 68.5523 169 68 169C67.4477 169 67 169.448 67 170C67 170.552 67.4477 171 68 171Z" fill="#CA4D51"/>
<path d="M70 167C70.5523 167 71 166.552 71 166C71 165.448 70.5523 165 70 165C69.4477 165 69 165.448 69 166C69 166.552 69.4477 167 70 167Z" fill="#CA4D51"/>
<g filter="url(#filter7_d_22_1173)">
<path d="M80.9287 134.797C81.8919 135.689 82.67 136.763 83.2183 137.956C83.7667 139.149 84.0747 140.439 84.1246 141.751C84.1746 143.064 83.9657 144.373 83.5096 145.604C83.0536 146.836 82.3595 147.965 81.467 148.929C80.5744 149.892 79.5009 150.67 78.3076 151.218C77.1144 151.767 75.8248 152.075 74.5125 152.125C73.2002 152.175 71.891 151.966 70.6595 151.51C69.428 151.054 68.2983 150.36 67.3351 149.467L69.5997 147.023C70.242 147.618 70.9953 148.081 71.8164 148.385C72.6376 148.689 73.5107 148.828 74.3857 148.795C75.2607 148.762 76.1206 148.556 76.9163 148.191C77.712 147.825 78.4278 147.306 79.023 146.664C79.6182 146.022 80.081 145.268 80.3851 144.447C80.6892 143.626 80.8285 142.753 80.7952 141.878C80.7618 141.003 80.5565 140.143 80.1908 139.347C79.8252 138.552 79.3064 137.836 78.6641 137.241L80.9287 134.797Z" fill="#517441"/>
<mask id="mask0_22_1173" style="mask-type:luminance" maskUnits="userSpaceOnUse" x="67" y="134" width="18" height="19">
<path d="M80.9287 134.797C81.8919 135.689 82.67 136.763 83.2183 137.956C83.7667 139.149 84.0747 140.439 84.1246 141.751C84.1746 143.064 83.9657 144.373 83.5096 145.604C83.0536 146.836 82.3595 147.965 81.467 148.929C80.5744 149.892 79.5009 150.67 78.3076 151.218C77.1144 151.767 75.8248 152.075 74.5125 152.125C73.2002 152.175 71.891 151.966 70.6595 151.51C69.428 151.054 68.2983 150.36 67.3351 149.467L69.5997 147.023C70.242 147.618 70.9953 148.081 71.8164 148.385C72.6376 148.689 73.5107 148.828 74.3857 148.795C75.2607 148.762 76.1206 148.556 76.9163 148.191C77.712 147.825 78.4278 147.306 79.023 146.664C79.6182 146.022 80.081 145.268 80.3851 144.447C80.6892 143.626 80.8285 142.753 80.7952 141.878C80.7618 141.003 80.5565 140.143 80.1908 139.347C79.8252 138.552 79.3064 137.836 78.6641 137.241L80.9287 134.797Z" fill="white"/>
</mask>
<g mask="url(#mask0_22_1173)">
<path d="M80.9287 134.797C81.8919 135.689 82.67 136.763 83.2183 137.956C83.7667 139.149 84.0747 140.439 84.1246 141.751C84.1746 143.064 83.9657 144.373 83.5096 145.604C83.0536 146.836 82.3595 147.965 81.467 148.929C80.5744 149.892 79.5009 150.67 78.3076 151.218C77.1144 151.767 75.8248 152.075 74.5125 152.125C73.2002 152.175 71.891 151.966 70.6595 151.51C69.428 151.054 68.2983 150.36 67.3351 149.467L69.5997 147.023C70.242 147.618 70.9953 148.081 71.8164 148.385C72.6376 148.689 73.5107 148.828 74.3857 148.795C75.2607 148.762 76.1206 148.556 76.9163 148.191C77.712 147.825 78.4278 147.306 79.023 146.664C79.6182 146.022 80.081 145.268 80.3851 144.447C80.6892 143.626 80.8285 142.753 80.7952 141.878C80.7618 141.003 80.5565 140.143 80.1908 139.347C79.8252 138.552 79.3064 137.836 78.6641 137.241L80.9287 134.797Z" stroke="#486839" stroke-width="2"/>
</g>
</g>
<g filter="url(#filter8_d_22_1173)">
<path d="M73.3864 197.777C72.6451 198.861 71.6976 199.788 70.5979 200.506C69.4982 201.224 68.2679 201.718 66.9773 201.96C65.6866 202.202 64.3609 202.188 63.0757 201.918C61.7905 201.648 60.5711 201.128 59.4872 200.386C58.4032 199.645 57.4758 198.698 56.758 197.598C56.0402 196.498 55.546 195.268 55.3036 193.977C55.0613 192.687 55.0756 191.361 55.3456 190.076C55.6156 188.791 56.1361 187.571 56.8774 186.487L59.6277 188.368C59.1334 189.091 58.7863 189.904 58.6063 190.761C58.4262 191.618 58.4167 192.502 58.5783 193.362C58.7399 194.223 59.0694 195.043 59.5481 195.777C60.0267 196.51 60.6451 197.142 61.3679 197.636C62.0907 198.13 62.9038 198.477 63.7608 198.658C64.6178 198.838 65.5018 198.847 66.3624 198.685C67.223 198.524 68.0434 198.194 68.7767 197.716C69.51 197.237 70.1418 196.619 70.6361 195.896L73.3864 197.777Z" fill="#517441"/>
<mask id="mask1_22_1173" style="mask-type:luminance" maskUnits="userSpaceOnUse" x="55" y="186" width="19" height="17">
<path d="M73.3864 197.777C72.6451 198.861 71.6976 199.788 70.5979 200.506C69.4982 201.224 68.2679 201.718 66.9773 201.96C65.6866 202.202 64.3609 202.188 63.0757 201.918C61.7905 201.648 60.5711 201.128 59.4872 200.386C58.4032 199.645 57.4758 198.698 56.758 197.598C56.0402 196.498 55.546 195.268 55.3036 193.977C55.0613 192.687 55.0756 191.361 55.3456 190.076C55.6156 188.791 56.1361 187.571 56.8774 186.487L59.6277 188.368C59.1334 189.091 58.7863 189.904 58.6063 190.761C58.4262 191.618 58.4167 192.502 58.5783 193.362C58.7399 194.223 59.0694 195.043 59.5481 195.777C60.0267 196.51 60.6451 197.142 61.3679 197.636C62.0907 198.13 62.9038 198.477 63.7608 198.658C64.6178 198.838 65.5018 198.847 66.3624 198.685C67.223 198.524 68.0434 198.194 68.7767 197.716C69.51 197.237 70.1418 196.619 70.6361 195.896L73.3864 197.777Z" fill="white"/>
</mask>
<g mask="url(#mask1_22_1173)">
<path d="M73.3864 197.777C72.6451 198.861 71.6976 199.788 70.5979 200.506C69.4982 201.224 68.2679 201.718 66.9773 201.96C65.6866 202.202 64.3609 202.188 63.0757 201.918C61.7905 201.648 60.5711 201.128 59.4872 200.386C58.4032 199.645 57.4758 198.698 56.758 197.598C56.0402 196.498 55.546 195.268 55.3036 193.977C55.0613 192.687 55.0756 191.361 55.3456 190.076C55.6156 188.791 56.1361 187.571 56.8774 186.487L59.6277 188.368C59.1334 189.091 58.7863 189.904 58.6063 190.761C58.4262 191.618 58.4167 192.502 58.5783 193.362C58.7399 194.223 59.0694 195.043 59.5481 195.777C60.0267 196.51 60.6451 197.142 61.3679 197.636C62.0907 198.13 62.9038 198.477 63.7608 198.658C64.6178 198.838 65.5018 198.847 66.3624 198.685C67.223 198.524 68.0434 198.194 68.7767 197.716C69.51 197.237 70.1418 196.619 70.6361 195.896L73.3864 197.777Z" stroke="#486839" stroke-width="2"/>
</g>
</g>
<g filter="url(#filter9_d_22_1173)">
<path d="M62.5518 116.527C61.8434 117.632 60.9241 118.588 59.8464 119.338C58.7687 120.089 57.5538 120.62 56.271 120.9C54.9881 121.181 53.6625 121.207 52.3699 120.975C51.0772 120.744 49.8428 120.26 48.737 119.552C47.6313 118.843 46.676 117.924 45.9255 116.846C45.1751 115.769 44.6443 114.554 44.3634 113.271C44.0824 111.988 44.057 110.663 44.2884 109.37C44.5198 108.077 45.0035 106.843 45.712 105.737L48.5174 107.535C48.045 108.272 47.7224 109.095 47.5681 109.957C47.4138 110.819 47.4308 111.703 47.6181 112.558C47.8054 113.414 48.1594 114.224 48.6598 114.942C49.1602 115.661 49.7972 116.274 50.5345 116.746C51.2719 117.219 52.095 117.541 52.957 117.696C53.8189 117.85 54.7028 117.833 55.5582 117.646C56.4136 117.458 57.2238 117.104 57.9424 116.604C58.661 116.104 59.274 115.467 59.7464 114.729L62.5518 116.527Z" fill="#517441"/>
<mask id="mask2_22_1173" style="mask-type:luminance" maskUnits="userSpaceOnUse" x="44" y="105" width="19" height="17">
<path d="M62.5518 116.527C61.8434 117.632 60.9241 118.588 59.8464 119.338C58.7687 120.089 57.5538 120.62 56.271 120.9C54.9881 121.181 53.6625 121.207 52.3699 120.975C51.0772 120.744 49.8428 120.26 48.737 119.552C47.6313 118.843 46.676 117.924 45.9255 116.846C45.1751 115.769 44.6443 114.554 44.3634 113.271C44.0824 111.988 44.057 110.663 44.2884 109.37C44.5198 108.077 45.0035 106.843 45.712 105.737L48.5174 107.535C48.045 108.272 47.7224 109.095 47.5681 109.957C47.4138 110.819 47.4308 111.703 47.6181 112.558C47.8054 113.414 48.1594 114.224 48.6598 114.942C49.1602 115.661 49.7972 116.274 50.5345 116.746C51.2719 117.219 52.095 117.541 52.957 117.696C53.8189 117.85 54.7028 117.833 55.5582 117.646C56.4136 117.458 57.2238 117.104 57.9424 116.604C58.661 116.104 59.274 115.467 59.7464 114.729L62.5518 116.527Z" fill="white"/>
</mask>
<g mask="url(#mask2_22_1173)">
<path d="M62.5518 116.527C61.8434 117.632 60.9241 118.588 59.8464 119.338C58.7687 120.089 57.5538 120.62 56.271 120.9C54.9881 121.181 53.6625 121.207 52.3699 120.975C51.0772 120.744 49.8428 120.26 48.737 119.552C47.6313 118.843 46.676 117.924 45.9255 116.846C45.1751 115.769 44.6443 114.554 44.3634 113.271C44.0824 111.988 44.057 110.663 44.2884 109.37C44.5198 108.077 45.0035 106.843 45.712 105.737L48.5174 107.535C48.045 108.272 47.7224 109.095 47.5681 109.957C47.4138 110.819 47.4308 111.703 47.6181 112.558C47.8054 113.414 48.1594 114.224 48.6598 114.942C49.1602 115.661 49.7972 116.274 50.5345 116.746C51.2719 117.219 52.095 117.541 52.957 117.696C53.8189 117.85 54.7028 117.833 55.5582 117.646C56.4136 117.458 57.2238 117.104 57.9424 116.604C58.661 116.104 59.274 115.467 59.7464 114.729L62.5518 116.527Z" stroke="#486839" stroke-width="2"/>
</g>
</g>
<g filter="url(#filter10_d_22_1173)">
<path d="M79.9287 81.7968C80.8919 82.6894 81.67 83.7629 82.2183 84.9562C82.7667 86.1494 83.0747 87.439 83.1246 88.7512C83.1746 90.0635 82.9657 91.3728 82.5096 92.6043C82.0536 93.8358 81.3595 94.9654 80.467 95.9287C79.5744 96.8919 78.5009 97.67 77.3076 98.2183C76.1144 98.7667 74.8248 99.0746 73.5125 99.1246C72.2002 99.1746 70.891 98.9656 69.6595 98.5096C68.428 98.0536 67.2983 97.3595 66.3351 96.467L68.5997 94.023C69.242 94.6182 69.9953 95.081 70.8164 95.3851C71.6376 95.6891 72.5107 95.8285 73.3857 95.7952C74.2607 95.7618 75.1206 95.5565 75.9163 95.1908C76.712 94.8252 77.4278 94.3064 78.023 93.6641C78.6182 93.0217 79.081 92.2685 79.3851 91.4473C79.6892 90.6261 79.8285 89.7531 79.7952 88.8781C79.7618 88.003 79.5565 87.1431 79.1908 86.3475C78.8252 85.5518 78.3064 84.8359 77.6641 84.2408L79.9287 81.7968Z" fill="#517441"/>
<mask id="mask3_22_1173" style="mask-type:luminance" maskUnits="userSpaceOnUse" x="66" y="81" width="18" height="19">
<path d="M79.9287 81.7968C80.8919 82.6894 81.67 83.7629 82.2183 84.9562C82.7667 86.1494 83.0747 87.439 83.1246 88.7512C83.1746 90.0635 82.9657 91.3728 82.5096 92.6043C82.0536 93.8358 81.3595 94.9654 80.467 95.9287C79.5744 96.8919 78.5009 97.67 77.3076 98.2183C76.1144 98.7667 74.8248 99.0746 73.5125 99.1246C72.2002 99.1746 70.891 98.9656 69.6595 98.5096C68.428 98.0536 67.2983 97.3595 66.3351 96.467L68.5997 94.023C69.242 94.6182 69.9953 95.081 70.8164 95.3851C71.6376 95.6891 72.5107 95.8285 73.3857 95.7952C74.2607 95.7618 75.1206 95.5565 75.9163 95.1908C76.712 94.8252 77.4278 94.3064 78.023 93.6641C78.6182 93.0217 79.081 92.2685 79.3851 91.4473C79.6892 90.6261 79.8285 89.7531 79.7952 88.8781C79.7618 88.003 79.5565 87.1431 79.1908 86.3475C78.8252 85.5518 78.3064 84.8359 77.6641 84.2408L79.9287 81.7968Z" fill="white"/>
</mask>
<g mask="url(#mask3_22_1173)">
<path d="M79.9287 81.7968C80.8919 82.6894 81.67 83.7629 82.2183 84.9562C82.7667 86.1494 83.0747 87.439 83.1246 88.7512C83.1746 90.0635 82.9657 91.3728 82.5096 92.6043C82.0536 93.8358 81.3595 94.9654 80.467 95.9287C79.5744 96.8919 78.5009 97.67 77.3076 98.2183C76.1144 98.7667 74.8248 99.0746 73.5125 99.1246C72.2002 99.1746 70.891 98.9656 69.6595 98.5096C68.428 98.0536 67.2983 97.3595 66.3351 96.467L68.5997 94.023C69.242 94.6182 69.9953 95.081 70.8164 95.3851C71.6376 95.6891 72.5107 95.8285 73.3857 95.7952C74.2607 95.7618 75.1206 95.5565 75.9163 95.1908C76.712 94.8252 77.4278 94.3064 78.023 93.6641C78.6182 93.0217 79.081 92.2685 79.3851 91.4473C79.6892 90.6261 79.8285 89.7531 79.7952 88.8781C79.7618 88.003 79.5565 87.1431 79.1908 86.3475C78.8252 85.5518 78.3064 84.8359 77.6641 84.2408L79.9287 81.7968Z" stroke="#486839" stroke-width="2"/>
</g>
</g>
<g filter="url(#filter11_i_22_1173)">
<path d="M112.5 58H17.5C13.3579 58 10 61.3579 10 65.5C10 69.6421 13.3579 73 17.5 73H112.5C116.642 73 120 69.6421 120 65.5C120 61.3579 116.642 58 112.5 58Z" fill="#F9A66C"/>
</g>
<path d="M112.5 58.5H17.5C13.634 58.5 10.5 61.634 10.5 65.5C10.5 69.366 13.634 72.5 17.5 72.5H112.5C116.366 72.5 119.5 69.366 119.5 65.5C119.5 61.634 116.366 58.5 112.5 58.5Z" stroke="#DB9260"/>
<defs>
<filter id="filter0_i_22_1173" x="10.5505" y="58.75" width="108.899" height="166.816" filterUnits="userSpaceOnUse" color-interpolation-filters="sRGB">
<feFlood flood-opacity="0" result="BackgroundImageFix"/>
<feBlend mode="normal" in="SourceGraphic" in2="BackgroundImageFix" result="shape"/>
<feColorMatrix in="SourceAlpha" type="matrix" values="0 0 0 0 0 0 0 0 0 0 0 0 0 0 0 0 0 0 127 0" result="hardAlpha"/>
<feOffset dy="2"/>
<feGaussianBlur stdDeviation="2"/>
<feComposite in2="hardAlpha" operator="arithmetic" k2="-1" k3="1"/>
<feColorMatrix type="matrix" values="0 0 0 0 0 0 0 0 0 0 0 0 0 0 0 0 0 0 0.25 0"/>
<feBlend mode="normal" in2="shape" result="effect1_innerShadow_22_1173"/>
</filter>
<filter id="filter1_d_22_1173" x="10.7208" y="70" width="108.558" height="160.378" filterUnits="userSpaceOnUse" color-interpolation-filters="sRGB">
<feFlood flood-opacity="0" result="BackgroundImageFix"/>
<feColorMatrix in="SourceAlpha" type="matrix" values="0 0 0 0 0 0 0 0 0 0 0 0 0 0 0 0 0 0 127 0" result="hardAlpha"/>
<feOffset dy="2"/>
<feGaussianBlur stdDeviation="2.5"/>
<feComposite in2="hardAlpha" operator="out"/>
<feColorMatrix type="matrix" values="0 0 0 0 0 0 0 0 0 0 0 0 0 0 0 0 0 0 0.25 0"/>
<feBlend mode="normal" in2="BackgroundImageFix" result="effect1_dropShadow_22_1173"/>
<feBlend mode="normal" in="SourceGraphic" in2="effect1_dropShadow_22_1173" result="shape"/>
</filter>
<filter id="filter2_d_22_1173" x="12.4497" y="75.25" width="105.101" height="155.104" filterUnits="userSpaceOnUse" color-interpolation-filters="sRGB">
<feFlood flood-opacity="0" result="BackgroundImageFix"/>
<feColorMatrix in="SourceAlpha" type="matrix" values="0 0 0 0 0 0 0 0 0 0 0 0 0 0 0 0 0 0 127 0" result="hardAlpha"/>
<feOffset dy="2"/>
<feGaussianBlur stdDeviation="2.5"/>
<feComposite in2="hardAlpha" operator="out"/>
<feColorMatrix type="matrix" values="0 0 0 0 0 0 0 0 0 0 0 0 0 0 0 0 0 0 0.25 0"/>
<feBlend mode="normal" in2="BackgroundImageFix" result="effect1_dropShadow_22_1173"/>
<feBlend mode="normal" in="SourceGraphic" in2="effect1_dropShadow_22_1173" result="shape"/>
</filter>
<filter id="filter3_d_22_1173" x="33" y="81" width="28" height="28" filterUnits="userSpaceOnUse" color-interpolation-filters="sRGB">
<feFlood flood-opacity="0" result="BackgroundImageFix"/>
<feColorMatrix in="SourceAlpha" type="matrix" values="0 0 0 0 0 0 0 0 0 0 0 0 0 0 0 0 0 0 127 0" result="hardAlpha"/>
<feOffset dy="2"/>
<feGaussianBlur stdDeviation="2"/>
<feComposite in2="hardAlpha" operator="out"/>
<feColorMatrix type="matrix" values="0 0 0 0 0 0 0 0 0 0 0 0 0 0 0 0 0 0 0.25 0"/>
<feBlend mode="normal" in2="BackgroundImageFix" result="effect1_dropShadow_22_1173"/>
<feBlend mode="normal" in="SourceGraphic" in2="effect1_dropShadow_22_1173" result="shape"/>
</filter>
<filter id="filter4_d_22_1173" x="71" y="98" width="28" height="28" filterUnits="userSpaceOnUse" color-interpolation-filters="sRGB">
<feFlood flood-opacity="0" result="BackgroundImageFix"/>
<feColorMatrix in="SourceAlpha" type="matrix" values="0 0 0 0 0 0 0 0 0 0 0 0 0 0 0 0 0 0 127 0" result="hardAlpha"/>
<feOffset dy="2"/>
<feGaussianBlur stdDeviation="2"/>
<feComposite in2="hardAlpha" operator="out"/>
<feColorMatrix type="matrix" values="0 0 0 0 0 0 0 0 0 0 0 0 0 0 0 0 0 0 0.25 0"/>
<feBlend mode="normal" in2="BackgroundImageFix" result="effect1_dropShadow_22_1173"/>
<feBlend mode="normal" in="SourceGraphic" in2="effect1_dropShadow_22_1173" result="shape"/>
</filter>
<filter id="filter5_d_22_1173" x="40" y="126" width="28" height="28" filterUnits="userSpaceOnUse" color-interpolation-filters="sRGB">
<feFlood flood-opacity="0" result="BackgroundImageFix"/>
<feColorMatrix in="SourceAlpha" type="matrix" values="0 0 0 0 0 0 0 0 0 0 0 0 0 0 0 0 0 0 127 0" result="hardAlpha"/>
<feOffset dy="2"/>
<feGaussianBlur stdDeviation="2"/>
<feComposite in2="hardAlpha" operator="out"/>
<feColorMatrix type="matrix" values="0 0 0 0 0 0 0 0 0 0 0 0 0 0 0 0 0 0 0.25 0"/>
<feBlend mode="normal" in2="BackgroundImageFix" result="effect1_dropShadow_22_1173"/>
<feBlend mode="normal" in="SourceGraphic" in2="effect1_dropShadow_22_1173" result="shape"/>
</filter>
<filter id="filter6_d_22_1173" x="54" y="160" width="28" height="28" filterUnits="userSpaceOnUse" color-interpolation-filters="sRGB">
<feFlood flood-opacity="0" result="BackgroundImageFix"/>
<feColorMatrix in="SourceAlpha" type="matrix" values="0 0 0 0 0 0 0 0 0 0 0 0 0 0 0 0 0 0 127 0" result="hardAlpha"/>
<feOffset dy="2"/>
<feGaussianBlur stdDeviation="2"/>
<feComposite in2="hardAlpha" operator="out"/>
<feColorMatrix type="matrix" values="0 0 0 0 0 0 0 0 0 0 0 0 0 0 0 0 0 0 0.25 0"/>
<feBlend mode="normal" in2="BackgroundImageFix" result="effect1_dropShadow_22_1173"/>
<feBlend mode="normal" in="SourceGraphic" in2="effect1_dropShadow_22_1173" result="shape"/>
</filter>
<filter id="filter7_d_22_1173" x="63.3351" y="132.797" width="24.7968" height="25.3353" filterUnits="userSpaceOnUse" color-interpolation-filters="sRGB">
<feFlood flood-opacity="0" result="BackgroundImageFix"/>
<feColorMatrix in="SourceAlpha" type="matrix" values="0 0 0 0 0 0 0 0 0 0 0 0 0 0 0 0 0 0 127 0" result="hardAlpha"/>
<feOffset dy="2"/>
<feGaussianBlur stdDeviation="2"/>
<feComposite in2="hardAlpha" operator="out"/>
<feColorMatrix type="matrix" values="0 0 0 0 0 0 0 0 0 0 0 0 0 0 0 0 0 0 0.25 0"/>
<feBlend mode="normal" in2="BackgroundImageFix" result="effect1_dropShadow_22_1173"/>
<feBlend mode="normal" in="SourceGraphic" in2="effect1_dropShadow_22_1173" result="shape"/>
</filter>
<filter id="filter8_d_22_1173" x="51.1319" y="184.487" width="26.2545" height="23.6446" filterUnits="userSpaceOnUse" color-interpolation-filters="sRGB">
<feFlood flood-opacity="0" result="BackgroundImageFix"/>
<feColorMatrix in="SourceAlpha" type="matrix" values="0 0 0 0 0 0 0 0 0 0 0 0 0 0 0 0 0 0 127 0" result="hardAlpha"/>
<feOffset dy="2"/>
<feGaussianBlur stdDeviation="2"/>
<feComposite in2="hardAlpha" operator="out"/>
<feColorMatrix type="matrix" values="0 0 0 0 0 0 0 0 0 0 0 0 0 0 0 0 0 0 0.25 0"/>
<feBlend mode="normal" in2="BackgroundImageFix" result="effect1_dropShadow_22_1173"/>
<feBlend mode="normal" in="SourceGraphic" in2="effect1_dropShadow_22_1173" result="shape"/>
</filter>
<filter id="filter9_d_22_1173" x="40.1319" y="103.737" width="26.4199" height="23.3947" filterUnits="userSpaceOnUse" color-interpolation-filters="sRGB">
<feFlood flood-opacity="0" result="BackgroundImageFix"/>
<feColorMatrix in="SourceAlpha" type="matrix" values="0 0 0 0 0 0 0 0 0 0 0 0 0 0 0 0 0 0 127 0" result="hardAlpha"/>
<feOffset dy="2"/>
<feGaussianBlur stdDeviation="2"/>
<feComposite in2="hardAlpha" operator="out"/>
<feColorMatrix type="matrix" values="0 0 0 0 0 0 0 0 0 0 0 0 0 0 0 0 0 0 0.25 0"/>
<feBlend mode="normal" in2="BackgroundImageFix" result="effect1_dropShadow_22_1173"/>
<feBlend mode="normal" in="SourceGraphic" in2="effect1_dropShadow_22_1173" result="shape"/>
</filter>
<filter id="filter10_d_22_1173" x="62.3351" y="79.7968" width="24.7968" height="25.3351" filterUnits="userSpaceOnUse" color-interpolation-filters="sRGB">
<feFlood flood-opacity="0" result="BackgroundImageFix"/>
<feColorMatrix in="SourceAlpha" type="matrix" values="0 0 0 0 0 0 0 0 0 0 0 0 0 0 0 0 0 0 127 0" result="hardAlpha"/>
<feOffset dy="2"/>
<feGaussianBlur stdDeviation="2"/>
<feComposite in2="hardAlpha" operator="out"/>
<feColorMatrix type="matrix" values="0 0 0 0 0 0 0 0 0 0 0 0 0 0 0 0 0 0 0.25 0"/>
<feBlend mode="normal" in2="BackgroundImageFix" result="effect1_dropShadow_22_1173"/>
<feBlend mode="normal" in="SourceGraphic" in2="effect1_dropShadow_22_1173" result="shape"/>
</filter>
<filter id="filter11_i_22_1173" x="10" y="58" width="110" height="15" filterUnits="userSpaceOnUse" color-interpolation-filters="sRGB">
<feFlood flood-opacity="0" result="BackgroundImageFix"/>
<feBlend mode="normal" in="SourceGraphic" in2="BackgroundImageFix" result="shape"/>
<feColorMatrix in="SourceAlpha" type="matrix" values="0 0 0 0 0 0 0 0 0 0 0 0 0 0 0 0 0 0 127 0" result="hardAlpha"/>
<feOffset/>
<feGaussianBlur stdDeviation="2"/>
<feComposite in2="hardAlpha" operator="arithmetic" k2="-1" k3="1"/>
<feColorMatrix type="matrix" values="0 0 0 0 0 0 0 0 0 0 0 0 0 0 0 0 0 0 0.25 0"/>
<feBlend mode="normal" in2="shape" result="effect1_innerShadow_22_1173"/>
</filter>
</defs>
</svg>
